<?xml version="1.0" standalone="no"?>
<!DOCTYPE svg PUBLIC "-//W3C//DTD SVG 20010904//EN"
 "http://www.w3.org/TR/2001/REC-SVG-20010904/DTD/svg10.dtd">
<svg version="1.0" xmlns="http://www.w3.org/2000/svg"
 width="256.000000pt" height="256.000000pt" viewBox="0 0 256.000000 256.000000"
 preserveAspectRatio="xMidYMid meet">

<g transform="translate(0.000000,256.000000) scale(0.100000,-0.100000)"
fill="#000000" stroke="none">
<path d="M1774 2097 c-176 -144 -614 -500 -973 -791 -359 -291 -655 -536 -658
-543 -20 -53 237 -273 432 -370 189 -94 406 -129 650 -103 222 22 387 78 552
185 234 152 418 358 502 560 58 139 73 214 78 396 8 245 -23 429 -107 641 -40
100 -137 288 -149 288 -3 -1 -150 -119 -327 -263z m-284 -321 c0 -11 -19 -15
-25 -6 -3 5 1 10 9 10 9 0 16 -2 16 -4z m-45 -26 c4 -6 1 -18 -6 -26 -11 -13
-14 -13 -27 0 -8 8 -11 19 -8 25 9 14 33 14 41 1z m903 -203 c9 -77 -156 -206
-264 -207 -81 0 -81 54 0 135 68 68 145 106 211 102 47 -2 50 -4 53 -30z
m-1260 -904 c7 -71 -165 -203 -263 -203 -25 0 -48 6 -55 15 -32 39 54 145 163
200 39 19 64 25 102 23 48 -3 50 -4 53 -35z"/>
</g>
</svg>
